<svg width="666" height="163" viewBox="0 0 666 163" fill="none" xmlns="http://www.w3.org/2000/svg">
<mask id="mask0" mask-type="alpha" maskUnits="userSpaceOnUse" x="0" y="0" width="666" height="163">
<rect width="666" height="163" fill="#C4C4C4"/>
</mask>
<g mask="url(#mask0)">
<path fill-rule="evenodd" clip-rule="evenodd" d="M333.784 351.251C334.403 351.483 334.995 351.77 335.556 352.104C335.612 347.822 335.825 343.511 336.209 339.177C344.732 242.823 422.375 155.613 526.234 164.791C630.092 173.968 685.92 264.635 685.92 354.39C685.92 359.559 682.605 389.662 680.157 399.027C673.53 315.372 584.584 248.742 515.522 242.64C449.923 236.844 366.208 282.469 339.803 356.643C340.142 357.309 340.416 358.015 340.617 358.75C343.566 355.893 346.637 353.121 349.834 350.445C423.993 288.339 540.562 281.574 607.512 361.503C674.462 441.431 649.827 545.019 586.36 608.485C582.705 612.14 559.075 631.082 550.721 635.973C605.189 572.134 589.409 462.125 544.89 408.976C502.691 358.598 411.527 331.671 340.471 365.126C340.211 365.93 339.862 366.695 339.436 367.407C343.435 367.479 347.458 367.689 351.501 368.047C447.855 376.57 535.065 454.213 525.888 558.072C516.71 661.93 426.043 717.758 336.288 717.758C331.12 717.758 301.016 714.443 291.651 711.995C375.306 705.368 441.936 616.422 448.038 547.36C453.821 481.909 408.414 398.423 334.536 371.82C333.765 372.178 332.945 372.449 332.091 372.623C334.89 375.521 337.608 378.536 340.234 381.672C402.339 455.831 409.104 572.4 329.176 639.35C249.247 706.3 145.659 681.665 82.193 618.198C78.5382 614.543 59.5961 590.913 54.705 582.56C118.544 637.027 228.553 621.247 281.702 576.728C332.176 534.449 359.109 443.019 325.361 371.905C324.622 371.579 323.925 371.176 323.28 370.704C323.219 374.89 323.007 379.104 322.632 383.339C314.108 479.693 236.465 566.903 132.607 557.726C28.7479 548.548 -27.0799 457.881 -27.0799 368.126C-27.0799 362.958 -23.7645 332.854 -21.3165 323.489C-14.6896 407.145 74.2562 473.774 143.318 479.876C209.11 485.689 293.126 439.778 319.269 365.217C319.054 364.57 318.896 363.897 318.802 363.203C315.676 366.259 312.413 369.22 309.006 372.072C234.847 434.178 118.278 440.942 51.3284 361.014C-15.6214 281.085 9.01361 177.498 72.4801 114.031C76.1348 110.376 99.7656 91.4342 108.119 86.5431C53.6513 150.382 69.4311 260.391 113.951 313.54C156.453 364.281 248.626 391.231 319.898 356.66C320.17 356.123 320.484 355.611 320.836 355.129C316.366 355.085 311.865 354.871 307.339 354.47C210.985 345.947 123.775 268.303 132.952 164.445C142.13 60.5859 232.797 4.75818 322.552 4.75818C327.721 4.75818 357.824 8.07353 367.189 10.5216C283.534 17.1485 216.904 106.094 210.802 175.157C204.978 241.078 251.081 325.293 325.9 351.26C326.447 351.053 327.015 350.887 327.599 350.767C324.5 347.602 321.497 344.297 318.607 340.844C256.501 266.685 249.736 150.116 329.665 83.1665C409.593 16.2167 513.181 40.8517 576.647 104.318C580.302 107.973 599.244 131.604 604.135 139.957C540.296 85.4893 430.287 101.269 377.138 145.789C326.513 188.194 299.57 280.046 333.784 351.251Z" fill="url(#paint0_linear)"/>
</g>
<defs>
<linearGradient id="paint0_linear" x1="-27.0799" y1="4.75818" x2="685.92" y2="717.758" gradientUnits="userSpaceOnUse">
<stop stop-color="#4CD9D9"/>
<stop offset="1" stop-color="#4CD9AA"/>
</linearGradient>
</defs>
</svg>
