<svg width="134" height="25" viewBox="0 0 134 25" fill="none" xmlns="http://www.w3.org/2000/svg">
<path d="M45.7936 17.8113C44.094 19.4949 42.0256 20.3367 39.5884 20.3367C37.1512 20.3367 35.0828 19.4949 33.3832 17.8113C31.6996 16.1117 30.8578 14.0353 30.8578 11.5821C30.8578 9.12882 31.6996 7.06041 33.3832 5.37682C35.0828 3.6772 37.1512 2.82738 39.5884 2.82738C42.0256 2.82738 44.094 3.6772 45.7936 5.37682C47.4932 7.06041 48.3431 9.12882 48.3431 11.5821C48.3431 14.0353 47.4932 16.1117 45.7936 17.8113ZM35.7161 15.5505C36.7584 16.5767 38.0491 17.0898 39.5884 17.0898C41.1277 17.0898 42.4184 16.5767 43.4607 15.5505C44.5029 14.5083 45.024 13.1855 45.024 11.5821C45.024 9.97863 44.5029 8.65581 43.4607 7.61359C42.4184 6.57137 41.1277 6.05026 39.5884 6.05026C38.0491 6.05026 36.7584 6.57137 35.7161 7.61359C34.6739 8.65581 34.1528 9.97863 34.1528 11.5821C34.1528 13.1855 34.6739 14.5083 35.7161 15.5505ZM57.2178 7.63764C58.5326 7.63764 59.6149 8.07858 60.4647 8.96046C61.3306 9.84234 61.7635 11.0609 61.7635 12.6163V20H58.6609V13.0011C58.6609 12.1994 58.4444 11.5901 58.0115 11.1732C57.5786 10.7403 57.0013 10.5238 56.2798 10.5238C55.4781 10.5238 54.8367 10.7723 54.3557 11.2694C53.8747 11.7664 53.6342 12.512 53.6342 13.5062V20H50.5315V7.97436H53.6342V9.32123C54.3878 8.19884 55.5823 7.63764 57.2178 7.63764ZM67.0343 15.2619C67.4512 16.7691 68.5816 17.5227 70.4255 17.5227C71.6121 17.5227 72.51 17.1219 73.1193 16.3202L75.6206 17.7632C74.4341 19.4789 72.6863 20.3367 70.3774 20.3367C68.3892 20.3367 66.7938 19.7354 65.5912 18.5329C64.3886 17.3303 63.7874 15.8151 63.7874 13.9872C63.7874 12.1753 64.3806 10.6681 65.5672 9.46554C66.7537 8.24694 68.2769 7.63764 70.1369 7.63764C71.9007 7.63764 73.3518 8.24694 74.4902 9.46554C75.6446 10.6841 76.2219 12.1914 76.2219 13.9872C76.2219 14.388 76.1818 14.8129 76.1016 15.2619H67.0343ZM66.9862 12.8568H73.1193C72.9429 12.039 72.5741 11.4297 72.0129 11.0289C71.4677 10.628 70.8424 10.4276 70.1369 10.4276C69.3031 10.4276 68.6137 10.6441 68.0685 11.077C67.5233 11.4939 67.1626 12.0871 66.9862 12.8568ZM84.8095 3.1641C86.429 3.1641 87.7919 3.70926 88.8982 4.79959C90.0046 5.88991 90.5578 7.22877 90.5578 8.81615C90.5578 10.4035 90.0046 11.7424 88.8982 12.8327C87.7919 13.923 86.429 14.4682 84.8095 14.4682H81.8512V20H78.5321V3.1641H84.8095ZM84.8095 11.3656C85.515 11.3656 86.1003 11.1251 86.5652 10.6441C87.0302 10.147 87.2627 9.53769 87.2627 8.81615C87.2627 8.07858 87.0302 7.46928 86.5652 6.98826C86.1003 6.50723 85.515 6.26672 84.8095 6.26672H81.8512V11.3656H84.8095ZM102.022 18.5088C100.787 19.7274 99.2797 20.3367 97.4999 20.3367C95.7201 20.3367 94.2129 19.7274 92.9783 18.5088C91.7597 17.2742 91.1504 15.767 91.1504 13.9872C91.1504 12.2074 91.7597 10.7082 92.9783 9.48959C94.2129 8.25496 95.7201 7.63764 97.4999 7.63764C99.2797 7.63764 100.787 8.25496 102.022 9.48959C103.256 10.7082 103.874 12.2074 103.874 13.9872C103.874 15.767 103.256 17.2742 102.022 18.5088ZM95.167 16.3683C95.7923 16.9936 96.57 17.3063 97.4999 17.3063C98.4299 17.3063 99.2076 16.9936 99.8329 16.3683C100.458 15.7429 100.771 14.9492 100.771 13.9872C100.771 13.0251 100.458 12.2314 99.8329 11.6061C99.2076 10.9808 98.4299 10.6681 97.4999 10.6681C96.57 10.6681 95.7923 10.9808 95.167 11.6061C94.5577 12.2314 94.253 13.0251 94.253 13.9872C94.253 14.9492 94.5577 15.7429 95.167 16.3683ZM107.595 6.53128C107.082 6.53128 106.633 6.34689 106.249 5.9781C105.88 5.59328 105.695 5.14432 105.695 4.63123C105.695 4.11814 105.88 3.66918 106.249 3.28436C106.633 2.89954 107.082 2.70713 107.595 2.70713C108.125 2.70713 108.574 2.89954 108.942 3.28436C109.327 3.66918 109.52 4.11814 109.52 4.63123C109.52 5.14432 109.327 5.59328 108.942 5.9781C108.574 6.34689 108.125 6.53128 107.595 6.53128ZM106.056 20V7.97436H109.159V20H106.056ZM118.685 7.63764C120 7.63764 121.082 8.07858 121.932 8.96046C122.798 9.84234 123.23 11.0609 123.23 12.6163V20H120.128V13.0011C120.128 12.1994 119.911 11.5901 119.478 11.1732C119.046 10.7403 118.468 10.5238 117.747 10.5238C116.945 10.5238 116.304 10.7723 115.823 11.2694C115.342 11.7664 115.101 12.512 115.101 13.5062V20H111.999V7.97436H115.101V9.32123C115.855 8.19884 117.049 7.63764 118.685 7.63764ZM132.758 10.9567H130.041V15.9594C130.041 16.3763 130.145 16.6809 130.353 16.8733C130.562 17.0657 130.866 17.178 131.267 17.2101C131.668 17.2261 132.165 17.2181 132.758 17.186V20C130.626 20.2405 129.119 20.0401 128.237 19.3987C127.371 18.7574 126.938 17.6109 126.938 15.9594V10.9567H124.845V7.97436H126.938V5.54518L130.041 4.60718V7.97436H132.758V10.9567Z" fill="#003293"/>
<path fill-rule="evenodd" clip-rule="evenodd" d="M11.7381 12.1184C11.7582 12.126 11.7775 12.1353 11.7957 12.1461C11.7975 12.007 11.8045 11.8669 11.817 11.726C12.0942 8.59481 14.6198 5.76074 17.9981 6.05898C21.3764 6.35722 23.1923 9.30363 23.1923 12.2204C23.1923 12.3884 23.0845 13.3667 23.0048 13.671C22.7893 10.9524 19.8961 8.78716 17.6496 8.58886C15.5158 8.40051 12.7928 9.88319 11.9339 12.2936C11.9449 12.3153 11.9538 12.3382 11.9604 12.3621C12.0563 12.2693 12.1562 12.1792 12.2602 12.0922C14.6724 10.0739 18.4641 9.8541 20.6419 12.4516C22.8196 15.049 22.0183 18.4153 19.9538 20.4778C19.835 20.5965 19.0663 21.2121 18.7946 21.371C20.5663 19.2964 20.053 15.7215 18.6049 13.9943C17.2323 12.3571 14.2669 11.4821 11.9556 12.5693C11.9472 12.5954 11.9358 12.6203 11.922 12.6434C12.052 12.6458 12.1829 12.6526 12.3144 12.6642C15.4486 12.9412 18.2853 15.4644 17.9868 18.8395C17.6883 22.2146 14.7391 24.0288 11.8196 24.0288C11.6514 24.0288 10.6722 23.9211 10.3676 23.8415C13.0887 23.6262 15.2561 20.7357 15.4545 18.4914C15.6426 16.3644 14.1657 13.6513 11.7626 12.7868C11.7375 12.7985 11.7108 12.8073 11.683 12.8129C11.7741 12.9071 11.8625 13.0051 11.9479 13.107C13.9681 15.517 14.1881 19.3051 11.5882 21.4808C8.98829 23.6564 5.61883 22.8559 3.55441 20.7934C3.43552 20.6746 2.81938 19.9067 2.66028 19.6352C4.73683 21.4053 8.31516 20.8925 10.044 19.4457C11.6858 18.0718 12.5619 15.1006 11.4641 12.7896C11.4401 12.779 11.4174 12.7659 11.3964 12.7506C11.3944 12.8866 11.3875 13.0235 11.3753 13.1612C11.0981 16.2924 8.57254 19.1265 5.19425 18.8282C1.81595 18.53 0 15.5836 0 12.6668C0 12.4988 0.107841 11.5206 0.18747 11.2162C0.40303 13.9348 3.29624 16.1 5.54268 16.2983C7.68275 16.4873 10.4156 14.9953 11.266 12.5723C11.259 12.5512 11.2538 12.5294 11.2508 12.5068C11.1491 12.6061 11.0429 12.7023 10.9321 12.795C8.5199 14.8133 4.72817 15.0331 2.55045 12.4357C0.372721 9.83821 1.17404 6.47192 3.23846 4.40945C3.35735 4.29068 4.126 3.67511 4.39771 3.51617C2.62601 5.59076 3.13929 9.16571 4.58741 10.8929C5.96991 12.5418 8.96811 13.4176 11.2864 12.2942C11.2953 12.2767 11.3055 12.2601 11.3169 12.2444C11.1715 12.243 11.0251 12.236 10.8779 12.223C7.74372 11.946 4.90697 9.42285 5.2055 6.04774C5.50402 2.67264 8.45321 0.858398 11.3727 0.858398C11.5409 0.858398 12.5201 0.966138 12.8247 1.04569C10.1036 1.26105 7.93626 4.15152 7.73777 6.39585C7.54831 8.53809 9.04794 11.2748 11.4817 12.1187C11.4995 12.112 11.5179 12.1066 11.5369 12.1027C11.4361 11.9998 11.3384 11.8924 11.2444 11.7802C9.22425 9.37025 9.0042 5.58211 11.6041 3.40644C14.204 1.23077 17.5735 2.03133 19.6379 4.0938C19.7568 4.21257 20.3729 4.9805 20.532 5.25196C18.4555 3.48192 14.8771 3.99472 13.1483 5.44148C11.5016 6.81953 10.6252 9.80445 11.7381 12.1184Z" fill="url(#paint0_linear)"/>
<defs>
<linearGradient id="paint0_linear" x1="0" y1="0.858398" x2="23.1704" y2="24.0507" gradientUnits="userSpaceOnUse">
<stop stop-color="#4CD9D9"/>
<stop offset="1" stop-color="#4CD9AA"/>
</linearGradient>
</defs>
</svg>
